<svg width="281" height="76" viewBox="0 0 281 76" fill="none" xmlns="http://www.w3.org/2000/svg">
<path d="M30.7684 21.4441C29.5813 20.9685 28.6317 20.4137 27.9194 19.4625C26.1784 17.0054 26.2575 14.5483 28.7899 12.646C30.0561 11.6948 31.4806 11.0607 33.0633 10.7437C33.7756 10.5852 34.5669 10.4266 35.1209 11.14C35.2792 11.2985 35.4374 11.3778 35.5957 11.0607C36.0705 10.1096 35.6749 6.78059 34.9626 6.06723C35.9123 5.75018 36.8619 5.82944 37.9698 6.06723C37.3367 6.30501 37.3367 6.78059 37.2576 7.1769C37.0993 8.36583 36.7828 9.63402 37.1785 10.9022C37.2576 11.2985 37.4159 11.4571 37.7324 11.14C38.2864 10.5059 38.9986 10.6644 39.7109 10.7437C41.1353 10.9815 42.4807 11.6156 43.6677 12.4082C47.862 15.1824 45.7253 19.7796 42.8763 21.0478C41.9267 21.4441 42.1641 21.6819 42.7181 22.1574C43.5094 22.9501 44.2217 23.8219 44.9339 24.8523C45.3296 24.2183 45.7253 23.6634 46.121 23.0293C47.4663 20.8892 48.8116 18.8284 50.157 16.6884C50.3944 16.292 50.5526 15.8957 50.5526 15.3409C50.4735 13.3593 50.3944 11.2985 50.2361 9.31697C50.2361 8.8414 50.3152 8.36583 50.6318 8.04878C52.7685 5.59166 54.9843 3.13453 57.121 0.677405C57.5167 0.281095 57.9124 -0.0359535 58.3872 0.360357C58.9412 0.83593 58.6246 1.23224 58.2289 1.62855C56.2505 3.92715 54.2721 6.14649 52.2937 8.44509C51.898 8.8414 51.7397 9.31697 51.7397 9.87181C51.8188 11.8534 51.898 13.8349 51.9771 15.8165C51.9771 16.292 51.8188 16.7676 51.5814 17.1639C49.7613 20.0174 48.0203 22.8708 46.2001 25.645C45.8835 26.1205 45.8835 26.4376 46.121 26.9132C46.7541 28.0228 47.2289 29.2118 47.4663 30.48C47.6246 31.2726 48.0203 31.4311 48.6533 31.0348C49.1282 30.797 49.603 30.7177 50.0778 30.48C51.5814 29.6081 53.085 29.6081 54.7469 30.0836C57.2002 30.7177 59.7325 31.1933 62.2649 31.7481C62.5815 31.8274 62.8189 31.7481 63.1354 31.6689C65.9052 30.797 68.675 30.0044 71.4448 29.1325H71.524C72.0779 28.974 72.711 28.7362 72.9484 29.5288C73.1859 30.2422 72.5528 30.4007 72.0779 30.5592C70.3369 31.1141 68.5959 31.4311 66.934 32.1445C63.8477 33.5712 60.7613 33.1749 57.675 32.2237C57.121 32.0652 56.5671 32.0652 56.0131 31.9067C53.4807 30.9555 51.0275 31.3518 48.7325 32.7786C48.9699 33.0956 49.4447 33.1749 49.8404 33.4127C55.7757 36.4246 61.157 40.0707 65.5887 45.1434C69.3081 49.3443 71.7614 54.1793 72.4736 59.8069C72.6319 61.1544 72.2362 62.0263 70.97 62.6604C69.3081 63.5323 67.488 63.453 65.6678 63.2152C62.1067 62.8189 58.6246 61.7885 55.3009 60.441C55.0635 60.3618 54.7469 60.124 54.5886 60.2825C54.3512 60.441 54.5095 60.8373 54.5886 61.0751C54.7469 62.2641 54.9843 63.453 55.1426 64.6419C55.2217 65.1968 55.4591 65.6723 55.8548 66.1479C58.3081 68.9221 60.8405 71.6962 63.2937 74.4704C63.6103 74.8667 63.9268 75.263 63.452 75.7386C62.9772 76.1349 62.5815 75.8971 62.2649 75.5008C59.5743 72.4889 56.8836 69.4769 54.2721 66.5442C54.0347 66.3064 53.9555 65.9894 53.8764 65.6723C53.5599 63.8493 53.2433 62.0263 53.0059 60.2032C52.9267 59.7277 52.7685 59.3314 52.2937 59.0936C50.3944 58.2217 48.4951 57.2705 46.7541 56.0816C46.121 55.6853 45.9627 55.8438 45.8044 56.4779C44.9339 59.5691 43.9051 62.5811 41.9267 65.1175C40.6605 66.782 39.0778 68.0502 36.8619 68.1295C34.4878 68.2087 32.8259 66.8613 31.4806 65.1175C29.5813 62.5811 28.4734 59.6484 27.6029 56.6364C27.5237 56.3194 27.4446 56.0024 27.2863 55.606C26.4158 56.1609 25.5453 56.6365 24.6748 57.112C23.5669 57.6669 22.459 58.301 21.351 58.7765C20.6388 59.0936 20.3223 59.4899 20.2431 60.2825C20.0057 62.0263 19.6892 63.77 19.4517 65.5138C19.3726 65.9101 19.2143 66.2272 18.9769 66.5442C16.4445 69.3976 13.833 72.2511 11.3006 75.1045L10.8258 75.5008C10.5092 75.8971 10.0344 76.2142 9.5596 75.8179C9.08478 75.3423 9.32219 74.946 9.71788 74.5497C10.6675 73.44 11.6172 72.4096 12.5668 71.2999C14.1496 69.5562 15.7323 67.8124 17.315 65.9894C17.3942 65.8309 17.6316 65.7516 17.6316 65.5931C17.9481 63.8493 18.1856 62.1055 18.5021 60.2825C16.8402 60.8373 15.3366 61.3922 13.833 61.8677C10.8258 62.8189 7.81859 63.453 4.6531 63.3737C3.70346 63.3737 2.75381 63.1359 1.8833 62.7396C0.617108 62.1055 0.221422 61.2336 0.379697 59.8069C1.17107 53.9415 3.78259 49.0273 7.73945 44.6679C12.092 39.8329 17.3942 36.3454 23.0921 33.4127C23.4877 33.2541 23.8043 33.0163 24.3582 32.7786C22.9338 32.2237 21.7467 31.6689 20.4805 31.2726C19.6892 31.0348 18.8978 31.5104 18.1856 31.6689C15.7323 32.1445 13.1999 32.6993 10.7467 33.2541C10.351 33.3334 9.95529 33.3334 9.5596 33.1749C6.71067 32.303 3.86173 31.4311 1.01279 30.5592C0.933657 30.5592 0.85452 30.5592 0.775382 30.48C0.30056 30.3214 -0.174263 30.0836 0.0631482 29.3703C0.30056 28.8155 0.775382 28.8155 1.25021 28.974C2.43726 29.5288 3.86173 29.9251 5.2862 30.3214C6.7898 30.797 8.21427 31.1933 9.71788 31.6689C10.0344 31.7481 10.351 31.7481 10.6675 31.6689C13.6747 31.0348 16.6819 30.4007 19.6892 29.7666C20.2431 29.6873 20.6388 29.6873 21.1136 29.8459C22.2215 30.3214 23.3295 30.7177 24.4374 31.1141C24.8331 31.2726 25.0705 31.3518 25.2288 30.7177C25.5453 29.291 26.0993 27.9436 26.7324 26.6754C26.9698 26.1998 26.8115 25.8828 26.5741 25.5657C24.7539 22.7123 23.0129 19.9381 21.1928 17.0847C20.8762 16.6091 20.7179 16.1335 20.7971 15.4994C20.8762 13.5971 20.9554 11.6948 21.0345 9.71328C21.0345 9.15845 20.8762 8.68288 20.4805 8.28657C18.5021 6.06723 16.6028 3.92715 14.7035 1.70781C14.6244 1.54929 14.4661 1.47003 14.387 1.3115C14.0704 0.915192 13.9913 0.518881 14.387 0.201833C14.7827 -0.115216 15.1783 -0.0359535 15.4949 0.281095C16.4445 1.39076 17.4733 2.50043 18.423 3.6101C19.61 4.95756 20.7971 6.38428 22.0633 7.73173C22.459 8.12804 22.6172 8.60362 22.6172 9.15845C22.5381 11.14 22.459 13.1216 22.3007 15.1031C22.3007 15.6579 22.3798 16.0543 22.6964 16.5298C24.2791 18.987 25.8619 21.5233 27.4446 23.9805C27.7611 24.5353 27.9986 24.6146 28.3942 23.9805C29.0273 23.2671 29.8978 22.3952 30.7684 21.4441Z" fill="url(#paint0_linear_1_357)"/>
<path d="M110.816 23.924V36.86H95.636V23.924H89.52V56H95.636V43.02H110.816V56H116.932V23.924H110.816ZM130.097 56V23.924H123.981V56H130.097ZM164.101 34.704C164.101 28.236 159.789 23.924 153.365 23.924H137.129V56H143.245V45.66H149.493L156.049 56H163.265L156.401 45.176C161.109 44.076 164.101 40.204 164.101 34.704ZM143.245 30.084H153.277C156.093 30.084 157.985 31.932 157.985 34.836C157.985 37.608 156.093 39.544 153.277 39.544H143.245V30.084ZM194.428 30.084V23.924H169.656V56H194.428V49.84H175.772V43.02H190.82V36.904H175.772V30.084H194.428ZM224.85 30.084V23.924H200.078V56H206.194V43.02H221.242V36.904H206.194V30.084H224.85ZM235.757 49.84V23.924H229.641V56H254.413V49.84H235.757ZM261.943 41.744V56H268.059V41.744L279.851 23.924H272.591L264.979 35.188L257.367 23.924H250.107L261.943 41.744Z" fill="#111322"/>
<defs>
<linearGradient id="paint0_linear_1_357" x1="1.70366" y1="62.4929" x2="70.9031" y2="17.0656" gradientUnits="userSpaceOnUse">
<stop stop-color="#1B638E"/>
<stop offset="1" stop-color="#02A644"/>
</linearGradient>
</defs>
</svg>
