<?xml version="1.0" encoding="utf-8"?>
<!-- Generator: Adobe Illustrator 26.2.1, SVG Export Plug-In . SVG Version: 6.00 Build 0)  -->
<svg version="1.1" id="Layer_1" xmlns="http://www.w3.org/2000/svg" xmlns:xlink="http://www.w3.org/1999/xlink" x="0px" y="0px"
	 viewBox="0 0 841.89 129.58" style="enable-background:new 0 0 841.89 129.58;" xml:space="preserve">
<style type="text/css">
	.st0{clip-path:url(#SVGID_00000128475318391153107300000006091165510216736952_);}
	.st1{fill:#3E544A;}
</style>
<g>
	<defs>
		<rect id="SVGID_1_" x="9.52" y="11.27" width="823.7" height="107.87"/>
	</defs>
	<clipPath id="SVGID_00000026165156378357200990000011987727942268412838_">
		<use xlink:href="#SVGID_1_"  style="overflow:visible;"/>
	</clipPath>
	<g id="Group_1" style="clip-path:url(#SVGID_00000026165156378357200990000011987727942268412838_);">
		<path id="Path_1" class="st1" d="M44.3,11.39v1.34c0,0,5.91,0.89,9.35,1.75c14.27,2.3,24.63,14.8,24.24,29.24
			c0.51,13.42-8.07,25.5-20.91,29.43c-4.17,1.15-8.47,1.72-12.8,1.71v1.84h9.74c0,0,41.45-1.65,41.45-32.72
			C95.36,15.79,65.38,10.76,44.3,11.39 M36.63,11.39L9.52,11.27v2.04l11.12,0.92V116.1l-11.1,1.05v1.9h38.03v-1.9l-10.94-1.21V11.39
			z M149.7,12.74l11.15,1.46v101.5l-10.95,1.09v2.2h26.47V11.27H149.7L149.7,12.74z M663.33,40.3h2l-0.9-29.03h-50.76v1.46
			l20.26,1.1C633.93,13.83,660.4,13.64,663.33,40.3 M198.45,64.8l-13.35,0.43v2.12l12.85,0.32c0,0,14.51-1.06,15.14,18.54h2.12
			V46.68h-2.22c0,0-0.75,17.9-14.53,18.12 M327.62,11.39l-27.12-0.12v2.04l11.15,0.92V116.1l-11.12,1.05v1.9h38.01v-1.9l-10.94-1.18
			L327.62,11.39z M627.64,64.8l-13.36,0.43v2.12l12.85,0.32c0,0,14.53-1.06,15.14,18.54h2.12V46.68h-2.23
			C642.16,46.68,641.43,64.58,627.64,64.8 M234.12,40.3h2.01l-0.92-29.03h-50.74v1.46l20.25,1.1
			C204.72,13.83,231.2,13.64,234.12,40.3 M208.37,116.52l-24.09,0.46v2.12h54.58l0.92-29.02h-2c-2.92,26.65-29.4,26.47-29.4,26.47
			 M637.59,116.55L613.48,117v2.12h54.61l0.92-29.02h-2.01c-2.91,26.65-29.37,26.47-29.37,26.47 M756.35,11.39l-27.13-0.12v2.04
			l11.14,0.92V116.1l-11.11,1.05v1.9h38.04v-1.9l-10.94-1.18L756.35,11.39z M816.07,43.91c0-28.18-29.98-33.21-51.06-32.58v1.31
			c0,0,5.91,0.92,9.35,1.74c14.28,2.29,24.66,14.8,24.26,29.26c0.5,13.42-8.08,25.5-20.93,29.44c-4.17,1.14-8.47,1.71-12.79,1.7
			v1.84h9.72C774.63,76.62,816.07,75,816.07,43.91 M336.33,11.39v1.34c0,0,5.92,0.89,9.36,1.75c14.28,2.3,24.65,14.81,24.26,29.27
			c0.5,13.41-8.08,25.49-20.92,29.43c-4.17,1.15-8.47,1.72-12.8,1.71v1.84h9.73c0,0,41.44-1.62,41.42-32.71
			c0-28.19-29.97-33.22-51.06-32.58 M813.94,102.25c-4.17-16.06-7.05-23.26-38.81-23.26v0.62c0,0,15.85-0.37,19.41,11.4
			c3.17,10.5,5.62,28.13,20.69,28.13h17.99v-1.92C824.01,117.58,815.88,111.26,813.94,102.25 M466.14,11.39l-27.1-0.12v2.04
			l11.14,0.92V116.1l-11.09,1.05v1.9h38.02v-1.9l-10.94-1.18L466.14,11.39z M578.91,12.74l11.13,1.46v101.5l-10.94,1.09v2.2h26.46
			V11.27h-26.65L578.91,12.74z M473.67,11.39v1.34c0,0,5.92,0.89,9.36,1.73c14.28,2.3,24.65,14.81,24.25,29.27
			c0.51,13.42-8.08,25.5-20.92,29.43c-4.17,1.15-8.47,1.72-12.79,1.71v1.84h9.73c0,0,41.44-1.62,41.43-32.71
			c0-28.19-29.97-33.22-51.06-32.58"/>
	</g>
</g>
</svg>
