<svg width="62" height="40" viewBox="0 0 62 40" fill="none" xmlns="http://www.w3.org/2000/svg">
<path d="M61.9989 4.70474C62.0191 3.78763 61.7535 2.88702 61.2385 2.12812C60.7236 1.36922 59.9849 0.789736 59.1257 0.47024C58.2666 0.150745 57.3294 0.10711 56.4443 0.345401C55.5592 0.583691 54.7706 1.09207 54.1876 1.79985L31.0713 28.8058L7.96319 1.79985C7.60364 1.31024 7.14717 0.900204 6.62196 0.595419C6.09674 0.290635 5.51414 0.0976691 4.91096 0.0286032C4.30778 -0.0404626 3.69697 0.0158612 3.11655 0.194047C2.53613 0.372233 1.99854 0.66844 1.53779 1.06412C1.07705 1.45981 0.703306 1.94644 0.439176 2.49355C0.175047 3.04065 0.0266964 3.63645 0.00328924 4.24362C-0.0201179 4.8508 0.0816425 5.45626 0.302866 6.02211C0.52409 6.58796 0.859658 7.102 1.28857 7.53204L27.721 38.4514C28.135 38.9369 28.6489 39.3268 29.2281 39.5942C29.8072 39.8616 30.4376 40 31.0754 40C31.7132 40 32.3435 39.8616 32.9227 39.5942C33.5018 39.3268 34.0162 38.9369 34.4302 38.4514L60.8881 7.53204C61.5813 6.75097 61.9754 5.74914 61.9999 4.70474L61.9989 4.70474Z" fill="black"/>
</svg>
