<svg width="1920" height="55" viewBox="0 0 1920 55" fill="none" xmlns="http://www.w3.org/2000/svg">
<path d="M98.6441 36.6101C59.4915 53.8983 19.322 54 0 54V55H1920V54C1853.9 54 1835.59 41.6949 1806.1 29.4915C1776.61 17.2881 1741.02 1.01695 1684.07 1.01695C1629.15 1.01695 1596.61 10.1695 1555.93 29.4915C1511.15 50.7645 1477.63 53.8983 1431.86 53.8983C1386.1 53.8983 1348.47 41.6949 1313.9 24.4068C1278.31 8.13559 1234.58 0 1204.07 0C1132.37 6.69795e-06 1085.08 25.4237 1073.9 30.5085C1062.71 35.5932 1026.1 53.8983 962.034 53.8983C883.729 53.8983 867.458 37.6271 834.915 25.4237C815.593 17.2881 782.034 1.01693 725.085 1.01693C662.034 1.01693 633.051 12.7118 602.034 26.4407C571.525 40.6779 540 53.8983 480 53.8983C420.275 53.8983 392.795 41.8064 367.468 30.6622L367.119 30.5085C340.678 19.322 304.068 1.01693 245.085 1.01693C165.254 1.01693 138.814 20.8474 98.6441 36.6101Z" fill="white"/>
</svg>
