<svg width="1920" height="55" viewBox="0 0 1920 55" fill="none" xmlns="http://www.w3.org/2000/svg">
<path d="M336.5 19C297.347 1.71189 255.322 2.00003 236 2.00003C172 2.00003 138 20.8056 103.5 35.5C60.3 53.9 18 55 0 55V0H1920V54C1865.08 54 1843 45.5 1794.5 24.5C1749.71 3.227 1713.63 2.10172 1667.86 2.10172C1622.1 2.10172 1587.5 15.3704 1550 32.5C1509.5 51 1470.51 54.5 1440 54.5C1360 53.5 1328.5 31 1309.5 23.5C1298.31 18.4153 1262 2.10174 1198.03 2.10174C1127.5 2.10174 1105.54 18.7966 1073 31C1053.68 39.1356 1018.03 54.9831 961.085 54.9831C898.034 54.9831 870.017 41.7289 839 28C808.492 13.7628 783 2.10172 716 2.10172C659 2.10172 628.924 15.3136 603.5 26.5C577.059 37.6865 548.5 54.9831 481.085 54.9831C408.5 54.9831 376.669 34.7627 336.5 19Z" fill="white"/>
</svg>
